HIERARCHY
ROOT Hips
{
	OFFSET 0.000000 94.000000 0.000022
	CHANNELS 6 Xposition Yposition Zposition Yrotation Xrotation Zrotation
	JOINT Spine
	{
		OFFSET 0.000000 12.994698 0.000004
		CHANNELS 6 Xposition Yposition Zposition Yrotation Xrotation Zrotation
		JOINT Spine1
		{
			OFFSET 0.000000 12.709900 0.000004
			CHANNELS 6 Xposition Yposition Zposition Yrotation Xrotation Zrotation
			JOINT Spine2
			{
				OFFSET 0.000000 12.782906 0.000004
				CHANNELS 6 Xposition Yposition Zposition Yrotation Xrotation Zrotation
				JOINT LeftShoulder
				{
					OFFSET 7.040100 10.435104 1.914702
					CHANNELS 6 Xposition Yposition Zposition Yrotation Xrotation Zrotation
					JOINT LeftArm
					{
						OFFSET 0.000000 13.459900 0.000004
						CHANNELS 6 Xposition Yposition Zposition Yrotation Xrotation Zrotation
						JOINT LeftForeArm
						{
							OFFSET -0.000100 26.100006 0.000006
							CHANNELS 6 Xposition Yposition Zposition Yrotation Xrotation Zrotation
							JOINT LeftHand
							{
								OFFSET 0.000000 28.900101 0.000006
								CHANNELS 6 Xposition Yposition Zposition Yrotation Xrotation Zrotation
								JOINT LeftHandIndex1
								{
									OFFSET -2.561200 8.073898 0.103002
									CHANNELS 6 Xposition Yposition Zposition Yrotation Xrotation Zrotation
									JOINT LeftHandIndex2
									{
										OFFSET 0.000000 4.580505 0.000000
										CHANNELS 6 Xposition Yposition Zposition Yrotation Xrotation Zrotation
										JOINT LeftHandIndex3
										{
											OFFSET 0.000000 2.817993 0.000000
											CHANNELS 6 Xposition Yposition Zposition Yrotation Xrotation Zrotation
											End Site
											{
												OFFSET 0.000000 1.356598 0.000000
											}
										}
									}
								}
								JOINT LeftHandMiddle1
								{
									OFFSET -0.545000 8.136505 0.103002
									CHANNELS 6 Xposition Yposition Zposition Yrotation Xrotation Zrotation
									JOINT LeftHandMiddle2
									{
										OFFSET 0.000000 4.702408 0.000000
										CHANNELS 6 Xposition Yposition Zposition Yrotation Xrotation Zrotation
										JOINT LeftHandMiddle3
										{
											OFFSET 0.000000 3.101593 0.000000
											CHANNELS 6 Xposition Yposition Zposition Yrotation Xrotation Zrotation
											End Site
											{
												OFFSET 0.000000 1.499100 0.000000
											}
										}
									}
								}
								JOINT LeftHandPinky1
								{
									OFFSET 3.136800 7.018097 0.103102
									CHANNELS 6 Xposition Yposition Zposition Yrotation Xrotation Zrotation
									JOINT LeftHandPinky2
									{
										OFFSET 0.000000 3.554001 0.000000
										CHANNELS 6 Xposition Yposition Zposition Yrotation Xrotation Zrotation
										JOINT LeftHandPinky3
										{
											OFFSET 0.000000 2.233902 0.000000
											CHANNELS 6 Xposition Yposition Zposition Yrotation Xrotation Zrotation
											End Site
											{
												OFFSET 0.000000 1.120499 0.000000
											}
										}
									}
								}
								JOINT LeftHandRing1
								{
									OFFSET 1.440500 7.806702 0.103102
									CHANNELS 6 Xposition Yposition Zposition Yrotation Xrotation Zrotation
									JOINT LeftHandRing2
									{
										OFFSET 0.000000 4.392197 0.000000
										CHANNELS 6 Xposition Yposition Zposition Yrotation Xrotation Zrotation
										JOINT LeftHandRing3
										{
											OFFSET 0.000000 2.832703 0.000000
											CHANNELS 6 Xposition Yposition Zposition Yrotation Xrotation Zrotation
											End Site
											{
												OFFSET 0.000000 1.350006 0.000000
											}
										}
									}
								}
								JOINT LeftHandThumb1
								{
									OFFSET -2.786300 2.078995 0.094600
									CHANNELS 6 Xposition Yposition Zposition Yrotation Xrotation Zrotation
									JOINT LeftHandThumb2
									{
										OFFSET 0.000000 3.961899 0.000000
										CHANNELS 6 Xposition Yposition Zposition Yrotation Xrotation Zrotation
										JOINT LeftHandThumb3
										{
											OFFSET 0.000000 3.007095 0.000000
											CHANNELS 6 Xposition Yposition Zposition Yrotation Xrotation Zrotation
											End Site
											{
												OFFSET 0.000000 1.729507 0.000000
											}
										}
									}
								}
							}
						}
					}
				}
				JOINT Neck
				{
					OFFSET 0.000000 18.209305 0.000004
					CHANNELS 6 Xposition Yposition Zposition Yrotation Xrotation Zrotation
					JOINT Head
					{
						OFFSET 0.000000 11.033493 0.000002
						CHANNELS 6 Xposition Yposition Zposition Yrotation Xrotation Zrotation
						End Site
						{
							OFFSET 0.000000 8.022003 0.000002
						}
					}
				}
				JOINT RightShoulder
				{
					OFFSET -7.040100 10.435104 1.914702
					CHANNELS 6 Xposition Yposition Zposition Yrotation Xrotation Zrotation
					JOINT RightArm
					{
						OFFSET 0.000000 13.459900 0.000004
						CHANNELS 6 Xposition Yposition Zposition Yrotation Xrotation Zrotation
						JOINT RightForeArm
						{
							OFFSET 0.000000 26.100098 0.000006
							CHANNELS 6 Xposition Yposition Zposition Yrotation Xrotation Zrotation
							JOINT RightHand
							{
								OFFSET -0.000100 28.900101 -0.000094
								CHANNELS 6 Xposition Yposition Zposition Yrotation Xrotation Zrotation
								JOINT RightHandIndex1
								{
									OFFSET 2.561100 8.074005 0.103002
									CHANNELS 6 Xposition Yposition Zposition Yrotation Xrotation Zrotation
									JOINT RightHandIndex2
									{
										OFFSET 0.000000 4.580505 -0.000098
										CHANNELS 6 Xposition Yposition Zposition Yrotation Xrotation Zrotation
										JOINT RightHandIndex3
										{
											OFFSET 0.000000 2.817993 0.000000
											CHANNELS 6 Xposition Yposition Zposition Yrotation Xrotation Zrotation
											End Site
											{
												OFFSET 0.000000 1.356598 0.000000
											}
										}
									}
								}
								JOINT RightHandMiddle1
								{
									OFFSET 0.545000 8.136597 0.103002
									CHANNELS 6 Xposition Yposition Zposition Yrotation Xrotation Zrotation
									JOINT RightHandMiddle2
									{
										OFFSET 0.000000 4.702408 -0.000098
										CHANNELS 6 Xposition Yposition Zposition Yrotation Xrotation Zrotation
										JOINT RightHandMiddle3
										{
											OFFSET 0.000000 3.101593 0.000000
											CHANNELS 6 Xposition Yposition Zposition Yrotation Xrotation Zrotation
											End Site
											{
												OFFSET 0.000000 1.499100 0.000000
											}
										}
									}
								}
								JOINT RightHandPinky1
								{
									OFFSET -3.136800 7.018097 0.103002
									CHANNELS 6 Xposition Yposition Zposition Yrotation Xrotation Zrotation
									JOINT RightHandPinky2
									{
										OFFSET 0.000000 3.554092 -0.000098
										CHANNELS 6 Xposition Yposition Zposition Yrotation Xrotation Zrotation
										JOINT RightHandPinky3
										{
											OFFSET 0.000000 2.233994 0.000000
											CHANNELS 6 Xposition Yposition Zposition Yrotation Xrotation Zrotation
											End Site
											{
												OFFSET 0.000000 1.120499 0.000000
											}
										}
									}
								}
								JOINT RightHandRing1
								{
									OFFSET -1.440500 7.806793 0.103002
									CHANNELS 6 Xposition Yposition Zposition Yrotation Xrotation Zrotation
									JOINT RightHandRing2
									{
										OFFSET 0.000000 4.392303 -0.000098
										CHANNELS 6 Xposition Yposition Zposition Yrotation Xrotation Zrotation
										JOINT RightHandRing3
										{
											OFFSET 0.000000 2.832703 0.000000
											CHANNELS 6 Xposition Yposition Zposition Yrotation Xrotation Zrotation
											End Site
											{
												OFFSET 0.000000 1.350006 0.000000
											}
										}
									}
								}
								JOINT RightHandThumb1
								{
									OFFSET 2.786300 2.079102 0.094500
									CHANNELS 6 Xposition Yposition Zposition Yrotation Xrotation Zrotation
									JOINT RightHandThumb2
									{
										OFFSET 0.000000 3.962006 -0.000098
										CHANNELS 6 Xposition Yposition Zposition Yrotation Xrotation Zrotation
										JOINT RightHandThumb3
										{
											OFFSET 0.000000 3.007202 -0.000098
											CHANNELS 6 Xposition Yposition Zposition Yrotation Xrotation Zrotation
											End Site
											{
												OFFSET 0.000000 1.729507 0.000000
											}
										}
									}
								}
							}
						}
					}
				}
			}
		}
	}
	JOINT LeftUpLeg
	{
		OFFSET 8.100000 0.000000 0.000000
		CHANNELS 6 Xposition Yposition Zposition Yrotation Xrotation Zrotation
		JOINT LeftLeg
		{
			OFFSET 0.000000 43.199997 0.000010
			CHANNELS 6 Xposition Yposition Zposition Yrotation Xrotation Zrotation
			JOINT LeftFoot
			{
				OFFSET 0.000000 43.300003 0.000010
				CHANNELS 6 Xposition Yposition Zposition Yrotation Xrotation Zrotation
				JOINT LeftToeBase
				{
					OFFSET 0.000000 14.572693 0.000004
					CHANNELS 6 Xposition Yposition Zposition Yrotation Xrotation Zrotation
					End Site
					{
						OFFSET 0.000000 3.500000 0.000000
					}
				}
			}
		}
	}
	JOINT RightUpLeg
	{
		OFFSET -8.100000 0.000000 0.000000
		CHANNELS 6 Xposition Yposition Zposition Yrotation Xrotation Zrotation
		JOINT RightLeg
		{
			OFFSET 0.000000 43.199997 0.000010
			CHANNELS 6 Xposition Yposition Zposition Yrotation Xrotation Zrotation
			JOINT RightFoot
			{
				OFFSET 0.000000 43.300003 0.000010
				CHANNELS 6 Xposition Yposition Zposition Yrotation Xrotation Zrotation
				JOINT RightToeBase
				{
					OFFSET 0.000000 14.572693 0.000004
					CHANNELS 6 Xposition Yposition Zposition Yrotation Xrotation Zrotation
					End Site
					{
						OFFSET 0.000000 3.500000 0.000000
					}
				}
			}
		}
	}
}
MOTION
Frames: 4
Frame Time: 0.010000
3.849938 94.601601 11.513622 18.226816 -0.674147 0.936591 -0.000000 12.994705 0.000001 -0.000001 0.000000 -0.000000 -0.000000 12.709913 0.000002 0.000004 3.542360 0.000000 0.000001 12.782918 0.000004 -24.988993 5.804955 -2.686702 7.040111 10.435102 1.914703 89.999907 100.128558 -0.000106 0.000002 13.459893 -0.000007 10.663595 81.048500 10.582694 -0.000101 26.100044 0.000009 -0.054799 -1.761998 3.666097 -0.000001 28.900070 0.000008 0.000000 -0.000000 0.000000 -2.561200 8.073901 0.103014 4.455595 17.500791 8.688300 0.000003 4.580536 -0.000000 -0.000002 17.999987 -0.000000 -0.000000 2.818038 -0.000013 0.000000 17.998681 -0.000800 -0.545001 8.136565 0.103012 -0.000001 17.999589 5.400100 -0.000003 4.702389 0.000014 0.000002 18.000100 0.000000 -0.000002 3.101634 -0.000001 0.000100 17.999995 0.000100 3.136804 7.018158 0.103115 -22.769086 18.002383 -13.293802 0.000004 3.554041 0.000003 -0.000303 17.999386 0.000299 0.000005 2.233924 0.000007 -0.000099 18.000386 -0.000602 1.440501 7.806704 0.103110 -11.405896 19.284894 -1.936600 0.000003 4.392258 0.000011 -0.000000 17.999982 0.000000 0.000002 2.832691 -0.000013 -0.000001 17.998995 -0.000101 -2.786294 2.079022 0.094611 59.081184 -12.433409 28.170801 -0.000003 3.961884 0.000001 -0.354600 6.351296 -6.389994 0.000002 3.007086 0.000001 -0.354995 6.350898 -6.390100 -0.000001 18.209305 0.000007 0.000000 0.000001 -0.000000 0.000001 11.033484 0.000008 32.936303 -8.676802 -8.392991 -7.040093 10.435106 1.914704 -89.999921 102.224982 -0.000024 0.000002 13.459892 -0.000017 -64.903593 72.461805 -79.001096 0.000002 26.100101 0.000006 -0.206398 2.965197 -6.769994 -0.000104 28.900055 -0.000096 0.000001 -0.000001 0.000001 2.561108 8.074039 0.103004 -4.455794 17.500697 -8.688101 0.000003 4.580498 -0.000103 0.000002 17.999985 -0.000101 -0.000002 2.817984 0.000003 -0.000001 17.999386 0.000195 0.545008 8.136642 0.103005 -0.000095 17.999891 -5.399895 0.000004 4.702439 -0.000075 0.000000 17.999985 -0.000001 -0.000002 3.101640 0.000009 0.000003 17.999983 -0.000000 -3.136791 7.018124 0.103002 22.769293 18.002599 13.293903 0.000004 3.554128 -0.000084 0.000001 17.998903 0.000100 0.000001 2.234002 -0.000001 -0.000000 17.999195 0.000199 -1.440495 7.806841 0.103005 11.405699 19.284901 1.936701 -0.000006 4.392365 -0.000090 -0.000000 17.999990 -0.000001 -0.000001 2.832699 0.000002 -0.000002 17.999189 0.000002 2.786293 2.079119 0.094487 -59.081293 -12.433305 -28.170398 -0.000000 3.962016 -0.000103 0.354798 6.350601 6.389700 -0.000003 3.007242 -0.000090 0.354902 6.350796 6.390195 8.100000 0.000011 -0.000002 -5.037800 -1.824174 -179.098598 -0.000000 43.199974 0.000011 -0.000200 -16.825695 0.083100 -0.000001 43.299992 0.000018 4.458698 68.218290 5.184096 -0.000000 14.572728 0.000001 -0.000001 37.171877 1.156200 -8.100000 0.000010 -0.000001 -8.373797 -0.171673 178.180798 -0.000000 43.200005 0.000015 0.012800 -20.700094 -0.125500 0.000002 43.300003 0.000026 -5.410604 71.253216 -6.098903 0.000000 14.572675 -0.000005 -0.000001 39.489883 -0.000101 
3.948937 94.618698 11.436122 18.182754 -0.694822 0.934173 0.000000 12.994705 0.000001 0.000002 0.000000 -0.000000 0.000000 12.709929 0.000004 0.000002 3.542358 -0.000000 -0.000000 12.782918 0.000005 -25.000627 5.804408 -2.687873 7.040126 10.435061 1.914699 89.999893 100.128558 -0.000090 0.000006 13.459900 0.000024 10.381294 81.034491 10.256390 -0.000100 26.100061 0.000007 -0.053501 -1.719499 3.667900 0.000000 28.900070 0.000005 -0.000000 -0.000000 0.000000 -2.561196 8.073901 0.103014 4.455596 17.500794 8.688300 0.000001 4.580536 -0.000000 -0.000001 17.999982 -0.000000 0.000001 2.818023 0.000010 -0.000000 17.998684 -0.000800 -0.545000 8.136535 0.103013 -0.000000 17.999594 5.400101 0.000003 4.702374 0.000006 -0.000000 18.000098 0.000000 0.000002 3.101619 0.000007 0.000100 17.999994 0.000100 3.136809 7.018144 0.103101 -22.769086 18.002389 -13.293795 0.000004 3.554043 0.000013 -0.000202 17.999386 0.000399 0.000001 2.233893 -0.000002 -0.000099 18.000385 -0.000603 1.440503 7.806719 0.103103 -11.405896 19.284897 -1.936600 0.000003 4.392227 0.000011 -0.000000 17.999985 -0.000000 0.000003 2.832721 0.000002 -0.000002 17.998993 -0.000102 -2.786301 2.079037 0.094596 59.081184 -12.433408 28.170801 -0.000001 3.961899 -0.000001 -0.354595 6.351300 -6.389999 0.000011 3.007117 0.000003 -0.354999 6.350900 -6.390097 0.000000 18.209274 0.000002 -0.000000 -0.000003 0.000000 -0.000001 11.033499 -0.000003 32.926897 -8.679401 -8.372491 -7.040093 10.435062 1.914703 -89.999914 102.224982 -0.000040 -0.000004 13.459907 -0.000005 -65.024077 72.485014 -79.079500 -0.000002 26.100082 0.000007 -0.205998 2.936499 -6.822797 -0.000101 28.900055 -0.000095 -0.000000 -0.000001 -0.000001 2.561102 8.074039 0.103003 -4.455798 17.500697 -8.688100 -0.000001 4.580536 -0.000098 -0.000002 17.999983 0.000000 -0.000004 2.817999 -0.000005 0.000000 17.999384 0.000199 0.544999 8.136627 0.103004 -0.000099 17.999893 -5.399898 0.000000 4.702393 -0.000082 0.000000 17.999980 0.000001 -0.000003 3.101639 0.000009 0.000003 17.999985 -0.000000 -3.136801 7.018124 0.103001 22.769291 18.002594 13.293905 0.000000 3.554097 -0.000092 0.000001 17.998904 0.000100 -0.000001 2.234029 0.000003 -0.000099 17.999290 0.000200 -1.440503 7.806810 0.103005 11.405700 19.284899 1.936703 -0.000008 4.392304 -0.000098 0.000000 17.999995 -0.000002 -0.000001 2.832715 -0.000005 0.000001 17.999189 -0.000002 2.786292 2.079088 0.094499 -59.081287 -12.433303 -28.170400 0.000003 3.962017 -0.000094 0.354800 6.350605 6.389694 -0.000007 3.007241 -0.000090 0.354901 6.350798 6.390198 8.100001 0.000029 0.000001 -4.934899 -1.825574 -179.166613 0.000003 43.200024 0.000009 -0.000099 -16.821894 0.083000 -0.000000 43.299980 0.000004 4.399797 68.180096 5.117798 0.000003 14.572726 0.000002 0.000098 37.203982 1.141501 -8.100000 0.000002 -0.000002 -8.363998 -0.107376 178.102879 0.000002 43.200035 0.000014 0.012500 -20.545397 -0.124800 0.000000 43.299999 0.000008 -5.318699 71.221101 -5.995999 -0.000002 14.572704 0.000003 0.000001 39.433083 -0.000098 
4.047837 94.638100 11.349722 18.138290 -0.715704 0.931817 0.000000 12.994698 0.000002 0.000002 0.000000 -0.000000 0.000000 12.709936 0.000004 0.000001 3.542359 -0.000000 0.000001 12.782918 0.000004 -25.012552 5.803846 -2.689072 7.040126 10.435106 1.914701 89.999886 100.128558 -0.000089 0.000000 13.459888 -0.000045 10.098798 81.020401 9.929697 -0.000099 26.099989 0.000006 -0.052300 -1.677298 3.669397 -0.000000 28.900070 0.000010 0.000002 0.000000 0.000000 -2.561198 8.073901 0.103007 4.455595 17.500794 8.688300 0.000000 4.580552 -0.000000 -0.000001 17.999985 -0.000000 -0.000001 2.818038 0.000002 -0.000001 17.998686 -0.000800 -0.545002 8.136549 0.103013 -0.000000 17.999594 5.400099 0.000001 4.702404 0.000021 -0.000000 18.000093 0.000000 -0.000002 3.101619 -0.000001 0.000100 17.999994 0.000099 3.136808 7.018158 0.103101 -22.769086 18.002388 -13.293800 0.000005 3.554041 0.000004 -0.000301 17.999384 0.000299 -0.000000 2.233909 0.000014 -0.000099 18.000381 -0.000603 1.440506 7.806688 0.103103 -11.405896 19.284897 -1.936601 0.000003 4.392258 0.000003 -0.000000 17.999983 0.000001 0.000002 2.832722 -0.000006 -0.000001 17.998985 -0.000102 -2.786298 2.079022 0.094594 59.081287 -12.433408 28.170801 0.000001 3.961884 0.000001 -0.354598 6.351300 -6.389995 0.000000 3.007117 0.000006 -0.355001 6.350899 -6.390103 0.000000 18.209305 0.000006 -0.000000 -0.000002 0.000000 -0.000001 11.033499 0.000004 32.917902 -8.681701 -8.351894 -7.040092 10.435093 1.914708 -89.999907 102.224982 -0.000037 0.000002 13.459898 0.000005 -65.146290 72.508714 -79.158894 -0.000001 26.100090 0.000006 -0.205499 2.907297 -6.876296 -0.000103 28.900070 -0.000096 0.000001 -0.000001 -0.000002 2.561105 8.074009 0.103003 -4.455799 17.500697 -8.688097 -0.000006 4.580506 -0.000098 0.000000 17.999978 0.000002 0.000009 2.817984 0.000003 -0.000003 17.999382 0.000198 0.545003 8.136611 0.103012 -0.000097 17.999896 -5.399898 -0.000004 4.702439 -0.000090 0.000001 17.999985 -0.000002 0.000004 3.101639 0.000032 -0.000002 17.999978 0.000002 -3.136805 7.018109 0.103002 22.769300 18.002596 13.293903 -0.000005 3.554097 -0.000107 0.000000 17.998901 0.000100 -0.000001 2.234033 -0.000004 -0.000101 17.999189 0.000200 -1.440504 7.806795 0.103005 11.405699 19.284904 1.936703 -0.000001 4.392334 -0.000090 0.000000 17.999990 -0.000002 -0.000006 2.832715 -0.000013 -0.000000 17.999188 0.000001 2.786293 2.079104 0.094499 -59.081293 -12.433306 -28.170398 0.000003 3.962047 -0.000093 0.354695 6.350601 6.389694 -0.000008 3.007196 -0.000101 0.354896 6.350796 6.390196 8.100000 0.000000 0.000000 -4.832501 -1.830274 -179.236704 0.000002 43.199997 0.000011 -0.000099 -16.813699 0.082799 -0.000000 43.299992 0.000022 4.343897 68.133903 5.054994 -0.000004 14.572703 0.000004 -0.000001 37.236286 1.126596 -8.100000 0.000009 -0.000000 -8.353996 -0.047173 178.023403 0.000000 43.200001 0.000009 0.012200 -20.386995 -0.124200 0.000001 43.300003 0.000035 -5.220499 71.182101 -5.886202 -0.000000 14.572724 -0.000006 -0.000000 39.375378 -0.000000 
4.146236 94.658501 11.258322 18.087219 -0.742291 0.928040 -0.000000 12.994720 0.000004 -0.000000 -0.000000 -0.000000 -0.000000 12.709929 0.000003 -0.000001 3.542358 -0.000000 -0.000000 12.782933 0.000004 -25.029450 5.803056 -2.690772 7.040127 10.435061 1.914711 89.999893 100.128558 -0.000090 0.000000 13.459893 0.000033 9.783298 81.006194 9.567287 -0.000101 26.100027 0.000007 -0.051102 -1.640398 3.665500 -0.000000 28.900070 0.000004 -0.000001 -0.000000 0.000000 -2.561200 8.073886 0.103014 4.455597 17.500792 8.688301 0.000001 4.580536 -0.000008 -0.000001 17.999978 -0.000000 -0.000000 2.818008 -0.000005 -0.000000 17.998681 -0.000800 -0.545003 8.136534 0.103013 -0.000001 17.999591 5.400100 0.000003 4.702420 0.000014 0.000000 18.000098 0.000000 0.000000 3.101634 0.000007 0.000101 17.999992 0.000100 3.136807 7.018127 0.103109 -22.769088 18.002389 -13.293800 -0.000001 3.554041 0.000018 -0.000303 17.999382 0.000299 0.000002 2.233924 0.000006 -0.000100 18.000388 -0.000603 1.440501 7.806704 0.103110 -11.405895 19.284897 -1.936600 -0.000002 4.392197 0.000003 -0.000000 17.999980 0.000000 0.000002 2.832736 0.000002 -0.000001 17.998993 -0.000102 -2.786301 2.079022 0.094592 59.081177 -12.433414 28.170803 0.000001 3.961930 0.000001 -0.354598 6.351297 -6.389996 -0.000002 3.007086 -0.000001 -0.355001 6.350897 -6.390100 -0.000000 18.209274 0.000013 -0.000000 -0.000004 0.000000 0.000001 11.033453 0.000008 32.919695 -8.679800 -8.328389 -7.040094 10.435089 1.914710 -89.999914 102.224982 -0.000043 -0.000004 13.459905 0.000039 -65.304689 72.542613 -79.259592 -0.000001 26.100096 0.000007 -0.204397 2.862997 -6.944594 -0.000104 28.900070 -0.000096 -0.000000 -0.000000 -0.000003 2.561107 8.074039 0.103011 -4.455799 17.500688 -8.688094 -0.000009 4.580506 -0.000113 -0.000000 17.999994 -0.000000 0.000002 2.817969 -0.000012 -0.000004 17.999384 0.000196 0.545006 8.136610 0.103004 -0.000099 17.999893 -5.399890 -0.000002 4.702424 -0.000090 0.000000 17.999980 -0.000001 0.000003 3.101655 0.000016 -0.000003 17.999978 0.000001 -3.136802 7.018124 0.102995 22.769298 18.002587 13.293905 -0.000003 3.554097 -0.000099 0.000001 17.998904 0.000100 0.000002 2.234018 -0.000004 -0.000102 17.999191 0.000200 -1.440495 7.806794 0.103013 11.405701 19.284896 1.936707 -0.000003 4.392334 -0.000090 0.000000 17.999995 -0.000002 -0.000003 2.832715 -0.000021 -0.000001 17.999191 -0.000000 2.786292 2.079119 0.094496 -59.081287 -12.433297 -28.170400 -0.000007 3.962001 -0.000098 0.354801 6.350598 6.389701 -0.000006 3.007211 -0.000101 0.354898 6.350799 6.390197 8.100001 -0.000003 0.000001 -4.750998 -1.831373 -179.307096 0.000002 43.199986 0.000006 -0.000000 -16.805791 0.082600 0.000001 43.300011 0.000022 4.275798 68.084883 4.978396 -0.000002 14.572707 0.000001 -0.000000 37.273380 1.110096 -8.100001 0.000008 0.000002 -8.339701 0.036426 177.944391 0.000001 43.200012 0.000013 0.011800 -20.187382 -0.123200 0.000000 43.300003 0.000030 -5.122494 71.141399 -5.776597 0.000001 14.572724 -0.000006 0.000000 39.300393 -0.000001 
